<?xml version="1.0" standalone="no"?>
<!DOCTYPE svg PUBLIC "-//W3C//DTD SVG 20010904//EN"
 "http://www.w3.org/TR/2001/REC-SVG-20010904/DTD/svg10.dtd">
<svg version="1.0" xmlns="http://www.w3.org/2000/svg"
 width="940.000000pt" height="940.000000pt" viewBox="0 0 940.000000 940.000000"
 preserveAspectRatio="xMidYMid meet">
<metadata>
Created by potrace 1.14, written by Peter Selinger 2001-2017
</metadata>
<g transform="translate(0.000000,940.000000) scale(0.100000,-0.100000)"
fill="#000000" stroke="none">
<path d="M0 4700 l0 -4700 1195 0 c699 0 1195 4 1195 9 0 9 23 8 124 -5 l59
-7 -6 33 c-4 18 -7 41 -7 51 0 30 -20 22 -27 -11 -7 -35 -35 -40 -85 -14 -17
9 -54 22 -82 31 -63 18 -106 36 -106 44 0 3 -17 14 -38 23 -30 13 -70 18 -168
19 l-130 2 -51 37 c-28 21 -55 38 -60 38 -5 0 -20 11 -33 25 -33 35 -96 51
-250 65 -74 6 -153 17 -175 23 -86 24 -177 95 -241 188 -35 51 -77 79 -137 90
-102 18 -133 26 -193 52 -87 37 -122 73 -135 139 -5 29 -10 207 -11 403 -1
275 -3 341 -12 308 -15 -58 -22 -61 -41 -17 -9 22 -29 53 -44 69 -16 17 -48
59 -72 95 -25 36 -60 81 -78 100 -60 64 -69 75 -86 109 -21 43 -14 111 16 149
72 94 108 144 119 171 7 17 16 31 20 31 6 0 32 25 136 136 27 28 54 46 84 54
25 7 80 27 123 46 43 19 83 34 87 34 5 0 28 13 52 28 24 16 62 34 85 42 23 7
52 24 64 36 13 13 28 24 35 24 7 0 25 11 41 24 37 31 159 92 200 101 44 9 73
-2 73 -27 0 -15 5 -19 19 -15 26 6 48 -9 75 -52 29 -45 32 -63 21 -116 -16
-77 -43 -121 -93 -154 -27 -17 -54 -31 -61 -31 -6 0 -24 -8 -38 -18 -26 -17
-102 -47 -266 -105 -16 -6 -66 -46 -110 -90 -78 -75 -145 -117 -188 -117 -10
0 -19 -4 -19 -10 0 -5 5 -10 10 -10 6 0 10 -5 10 -12 0 -9 -3 -9 -12 0 -18 18
-30 14 -23 -8 5 -14 2 -20 -9 -20 -9 0 -16 -7 -16 -16 0 -8 -4 -13 -9 -10 -4
3 -6 -5 -4 -18 3 -13 0 -27 -6 -30 -6 -4 -11 -15 -11 -24 0 -10 -16 -41 -35
-70 -32 -47 -36 -63 -10 -44 6 4 30 34 54 67 25 33 58 74 75 90 17 17 51 55
76 84 43 52 95 103 190 190 25 23 55 42 67 43 81 6 86 5 117 -27 17 -17 38
-34 47 -37 39 -15 57 -105 29 -143 -4 -5 -10 -27 -14 -47 -4 -21 -10 -38 -14
-38 -9 0 -34 -62 -39 -95 -5 -28 -46 -105 -57 -105 -4 0 -6 -6 -3 -14 3 -8 -3
-26 -13 -39 -11 -13 -17 -27 -13 -31 3 -3 -3 -14 -14 -23 -19 -17 -63 -101
-63 -121 0 -5 -7 -15 -15 -22 -8 -7 -15 -25 -15 -41 0 -16 -4 -29 -10 -29 -6
0 -10 -73 -11 -197 0 -109 -4 -223 -9 -253 -4 -30 -5 -58 -1 -63 11 -11 68 50
76 81 4 15 21 48 40 73 18 25 36 57 40 70 4 13 18 40 30 59 12 19 41 73 64
120 24 47 51 94 61 105 9 11 24 32 31 46 22 41 73 108 83 109 8 0 61 43 117
96 19 18 37 24 71 24 41 0 52 -5 92 -43 40 -36 47 -50 57 -102 6 -33 9 -78 6
-100 -14 -102 -38 -209 -51 -224 -8 -9 -19 -36 -26 -61 -19 -72 -41 -143 -52
-166 -5 -11 -7 -71 -4 -140 3 -65 5 -132 6 -147 0 -15 5 -25 11 -22 14 10 69
122 84 174 21 72 70 204 103 273 16 35 37 83 47 108 26 67 75 162 97 185 10
11 24 28 31 39 17 23 82 25 129 4 18 -9 51 -24 73 -34 71 -32 75 -40 74 -161
0 -109 -5 -145 -34 -263 -9 -36 -20 -85 -24 -110 -4 -25 -15 -59 -24 -77 -9
-18 -17 -41 -17 -52 0 -11 -4 -22 -10 -26 -5 -3 -7 -12 -3 -20 3 -9 1 -21 -4
-28 -14 -17 -37 -162 -30 -181 4 -9 17 -16 29 -17 22 -1 22 -1 -2 -9 -17 -5 1
-8 58 -9 63 -1 91 3 114 17 l29 17 -7 73 c-6 65 -5 72 12 72 25 0 102 -39 117
-59 28 -39 112 -63 147 -41 9 5 19 5 27 -1 7 -6 16 -8 20 -6 9 6 49 82 57 109
4 15 17 18 73 18 59 0 203 -23 223 -35 4 -3 63 -11 131 -20 68 -8 174 -22 234
-30 150 -20 757 -45 1115 -45 280 0 899 23 930 34 19 7 155 24 282 36 53 5
109 15 125 23 15 8 54 20 86 27 65 15 107 2 107 -32 0 -10 4 -18 9 -18 11 0
31 -87 31 -135 0 -25 -5 -35 -20 -40 -11 -3 -20 -11 -20 -16 0 -5 -12 -9 -27
-9 -16 0 -82 -10 -148 -21 -204 -36 -225 -38 -405 -49 -96 -6 -224 -18 -285
-26 -251 -32 -477 -45 -755 -40 -260 4 -587 24 -730 45 -36 6 -128 15 -205 21
-77 6 -171 18 -210 25 -86 17 -265 38 -271 32 -7 -6 120 -35 206 -47 41 -5
145 -19 230 -31 85 -11 187 -25 225 -30 39 -6 153 -14 255 -19 531 -27 620
-30 799 -20 102 5 272 12 376 16 105 3 193 8 196 10 4 2 49 6 100 9 99 7 164
15 319 39 52 9 115 16 140 16 25 0 63 6 85 14 79 27 101 29 101 7 0 -12 -13
-25 -36 -36 -19 -9 -42 -21 -52 -26 -9 -4 -45 -15 -80 -24 -34 -9 -79 -22 -99
-30 -21 -8 -90 -21 -155 -30 -66 -9 -150 -23 -189 -32 -116 -25 -153 -31 -325
-53 -303 -38 -424 -50 -525 -51 -55 -1 -122 -5 -150 -9 l-50 -7 45 -2 c25 -1
62 -4 83 -8 34 -5 38 -9 34 -29 -4 -23 -2 -24 72 -25 142 -3 276 3 396 16 133
16 474 62 508 70 119 26 326 79 342 88 11 6 41 14 68 17 44 6 47 5 47 -15 0
-43 -21 -83 -48 -93 -15 -5 -54 -15 -87 -22 -33 -6 -82 -18 -110 -25 -27 -8
-84 -19 -125 -25 -41 -6 -84 -15 -95 -20 -11 -5 -29 -11 -40 -13 -11 -3 30 -5
92 -6 61 0 123 3 136 8 21 8 99 26 207 49 l25 5 -27 -22 c-14 -11 -31 -21 -37
-21 -6 0 -11 -4 -11 -10 0 -7 592 -10 1755 -10 l1755 0 0 4700 0 4700 -970 0
-970 0 0 -160 c0 -100 -4 -160 -10 -160 -6 0 -10 60 -10 160 l0 160 -714 0
-715 0 -4 -42 -4 -43 -1 42 -2 43 -1000 0 -1000 0 0 -40 c0 -22 -4 -40 -10
-40 -5 0 -10 18 -10 40 l0 40 -1990 0 -1990 0 0 -4700z m4551 4660 c10 -6 19
-16 19 -23 0 -9 -2 -9 -8 0 -4 7 -26 17 -47 22 -34 8 -36 9 -12 10 16 1 37 -4
48 -9z m-28 -27 c-7 -2 -21 -2 -30 0 -10 3 -4 5 12 5 17 0 24 -2 18 -5z m3257
-3 c0 -5 -4 -10 -10 -10 -5 0 -10 5 -10 10 0 6 5 10 10 10 6 0 10 -4 10 -10z
m-3105 -28 c-7 -8 -35 7 -35 18 0 6 7 6 20 -2 10 -7 17 -14 15 -16z m233 -7
c-3 -3 -9 2 -12 12 -6 14 -5 15 5 6 7 -7 10 -15 7 -18z m132 15 c0 -5 -2 -10
-4 -10 -3 0 -8 5 -11 10 -3 6 -1 10 4 10 6 0 11 -4 11 -10z m2690 -30 c0 -36
-2 -40 -25 -40 -22 0 -25 4 -25 40 0 36 3 40 25 40 23 0 25 -4 25 -40z m-2610
4 c0 -9 -5 -14 -12 -12 -18 6 -21 28 -4 28 9 0 16 -7 16 -16z m-367 -21 c-7
-2 -19 -2 -25 0 -7 3 -2 5 12 5 14 0 19 -2 13 -5z m-80 -20 c-7 -2 -19 -2 -25
0 -7 3 -2 5 12 5 14 0 19 -2 13 -5z m-813 -13 c0 -5 -4 -10 -10 -10 -5 0 -10
5 -10 10 0 6 5 10 10 10 6 0 10 -4 10 -10z m300 -30 c0 -22 -4 -40 -10 -40 -5
0 -10 18 -10 40 0 22 5 40 10 40 6 0 10 -18 10 -40z m1120 30 c0 -5 -2 -10 -4
-10 -3 0 -8 5 -11 10 -3 6 -1 10 4 10 6 0 11 -4 11 -10z m91 -1 c-16 -6 -28
-6 -35 1 -7 7 1 10 25 9 32 0 33 -1 10 -10z m66 5 c-3 -3 -12 -4 -19 -1 -8 3
-5 6 6 6 11 1 17 -2 13 -5z m-510 -20 c-3 -3 -12 -4 -19 -1 -8 3 -5 6 6 6 11
1 17 -2 13 -5z m417 -19 c11 -8 15 -15 10 -15 -6 0 -19 7 -30 15 -10 8 -14 14
-9 14 6 0 19 -6 29 -14z m66 5 c0 -5 -9 -10 -21 -10 -11 0 -17 5 -14 10 3 6
13 10 21 10 8 0 14 -4 14 -10z m-526 -19 c-5 -5 -27 -12 -49 -15 -22 -3 -32
-3 -22 0 10 3 30 12 44 19 28 15 44 12 27 -4z m61 9 c-3 -5 -11 -10 -16 -10
-6 0 -7 5 -4 10 3 6 11 10 16 10 6 0 7 -4 4 -10z m-949 -27 c-10 -10 -19 5
-10 18 6 11 8 11 12 0 2 -7 1 -15 -2 -18z m979 17 c3 -5 1 -10 -4 -10 -6 0
-11 5 -11 10 0 6 2 10 4 10 3 0 8 -4 11 -10z m2965 -10 c0 -5 -4 -10 -10 -10
-5 0 -10 5 -10 10 0 6 5 10 10 10 6 0 10 -4 10 -10z m-2650 -20 c0 -5 -2 -10
-4 -10 -3 0 -8 5 -11 10 -3 6 -1 10 4 10 6 0 11 -4 11 -10z m2470 -30 l0 -40
-40 0 -40 0 0 40 0 40 40 0 40 0 0 -40z m-2642 -27 c-10 -2 -26 -2 -35 0 -10
3 -2 5 17 5 19 0 27 -2 18 -5z m2882 -3 c0 -5 -18 -10 -40 -10 -22 0 -40 5
-40 10 0 6 18 10 40 10 22 0 40 -4 40 -10z m-3520 -20 c0 -5 -4 -10 -9 -10 -6
0 -13 5 -16 10 -3 6 1 10 9 10 9 0 16 -4 16 -10z m395 0 c-3 -5 -15 -10 -25
-10 -10 0 -22 5 -25 10 -4 6 7 10 25 10 18 0 29 -4 25 -10z m95 0 c0 -13 -30
-13 -50 0 -11 7 -7 10 18 10 17 0 32 -4 32 -10z m90 6 c0 -2 -7 -6 -15 -10 -8
-3 -15 -1 -15 4 0 6 7 10 15 10 8 0 15 -2 15 -4z m1180 -12 c0 -17 -22 -14
-28 4 -2 7 3 12 12 12 9 0 16 -7 16 -16z m160 -34 l0 -50 -40 0 c-22 0 -40 5
-40 10 0 6 14 10 30 10 28 0 30 2 30 40 0 22 5 40 10 40 6 0 10 -22 10 -50z
m-1975 20 c-3 -5 -12 -10 -20 -10 -8 0 -17 5 -20 10 -4 6 5 10 20 10 15 0 24
-4 20 -10z m862 -12 c-3 -8 -6 -5 -6 6 -1 11 2 17 5 13 3 -3 4 -12 1 -19z
m-807 -8 c0 -5 -7 -10 -16 -10 -8 0 -12 5 -9 10 3 6 10 10 16 10 5 0 9 -4 9
-10z m-1043 -22 c-3 -8 -6 -5 -6 6 -1 11 2 17 5 13 3 -3 4 -12 1 -19z m2751 4
c2 -7 -3 -12 -12 -12 -9 0 -16 7 -16 16 0 17 22 14 28 -4z m-2188 -1 c0 -12
-29 -23 -42 -15 -6 4 -5 10 3 15 18 11 39 11 39 0z m100 -1 c0 -5 -4 -10 -10
-10 -5 0 -10 5 -10 10 0 6 5 10 10 10 6 0 10 -4 10 -10z m325 -14 c0 -11 -6
-21 -12 -23 -7 -3 -13 2 -13 11 0 9 -8 16 -17 16 -15 0 -16 2 -3 10 22 15 45
7 45 -14z m858 7 c4 -2 6 -23 6 -46 -1 -23 -3 -34 -6 -24 -3 12 -15 17 -44 17
-21 0 -39 5 -39 10 0 6 18 10 40 10 29 0 40 4 40 15 0 12 -16 15 -80 15 -52 0
-80 4 -80 11 0 8 23 9 78 4 42 -4 80 -9 85 -12z m82 7 c-3 -5 -12 -10 -18 -10
-7 0 -6 4 3 10 19 12 23 12 15 0z m-405 -20 c0 -5 -18 -10 -40 -10 -29 0 -40
-4 -40 -15 0 -11 -11 -15 -40 -15 -33 0 -40 3 -40 19 0 16 -8 21 -42 24 -24 2
12 4 80 5 76 1 122 -2 122 -8z m3072 -37 c25 -22 23 -33 -7 -33 -20 0 -25 5
-25 25 0 29 7 31 32 8z m-3552 -18 c0 -8 -7 -15 -15 -15 -16 0 -20 12 -8 23
11 12 23 8 23 -8z m3620 -5 c0 -5 -4 -10 -10 -10 -5 0 -10 5 -10 10 0 6 5 10
10 10 6 0 10 -4 10 -10z m-3317 -7 c-13 -2 -33 -2 -45 0 -13 2 -3 4 22 4 25 0
35 -2 23 -4z m1457 -43 c0 -29 -5 -42 -19 -50 -25 -13 -71 -13 -71 0 0 6 16
10 35 10 34 0 35 1 35 40 0 22 5 40 10 40 6 0 10 -18 10 -40z m-1440 5 c0 -11
-11 -15 -40 -15 -29 0 -40 4 -40 15 0 11 11 15 40 15 29 0 40 -4 40 -15z
m1600 -40 c0 -11 -11 -15 -40 -15 -29 0 -40 4 -40 15 0 11 11 15 40 15 29 0
40 -4 40 -15z m-1920 -15 c0 -5 -2 -10 -4 -10 -3 0 -8 5 -11 10 -3 6 -1 10 4
10 6 0 11 -4 11 -10z m1788 -2 c-6 -18 -28 -21 -28 -4 0 9 7 16 16 16 9 0 14
-5 12 -12z m1912 -28 c0 -22 -4 -40 -10 -40 -5 0 -10 18 -10 40 0 22 5 40 10
40 6 0 10 -18 10 -40z m-2050 20 c0 -5 -2 -10 -4 -10 -3 0 -8 5 -11 10 -3 6
-1 10 4 10 6 0 11 -4 11 -10z m-1490 -30 c0 -6 -33 -10 -80 -10 -47 0 -80 4
-80 10 0 6 33 10 80 10 47 0 80 -4 80 -10z m1680 -9 c0 -6 19 -12 43 -14 36
-3 34 -4 -15 -5 -54 -2 -68 4 -51 21 9 10 23 8 23 -2z m-1100 -35 c0 -8 -4
-18 -10 -21 -5 -3 -10 -1 -10 4 0 6 -18 11 -40 11 -22 0 -40 5 -40 10 0 6 23
10 50 10 37 0 50 -4 50 -14z m120 -6 c-6 -11 -15 -20 -20 -20 -5 0 -14 9 -20
20 -10 18 -8 20 20 20 28 0 30 -2 20 -20z m2760 10 c0 -13 -40 -13 -60 0 -11
7 -5 10 23 10 20 0 37 -4 37 -10z m-3300 -10 c0 -5 -18 -10 -40 -10 -22 0 -40
5 -40 10 0 6 18 10 40 10 22 0 40 -4 40 -10z m1760 -50 c0 -5 -18 -10 -40 -10
-22 0 -40 5 -40 10 0 6 18 10 40 10 22 0 40 -4 40 -10z m-1200 -20 c0 -5 -2
-10 -4 -10 -3 0 -8 5 -11 10 -3 6 -1 10 4 10 6 0 11 -4 11 -10z m2750 -3 c0
-7 -5 -18 -12 -25 -14 -14 -98 -16 -98 -2 0 6 18 10 40 10 29 0 40 4 40 15 0
8 7 15 15 15 8 0 15 -6 15 -13z m127 -49 c-2 -13 -4 -3 -4 22 0 25 2 35 4 23
2 -13 2 -33 0 -45z m-1840 30 c-3 -8 -6 -5 -6 6 -1 11 2 17 5 13 3 -3 4 -12 1
-19z m-167 -32 c0 -2 -7 -7 -16 -10 -8 -3 -12 -2 -9 4 6 10 25 14 25 6z m1776
-10 c16 -16 19 -86 4 -86 -5 0 -10 18 -10 40 l0 40 -80 0 c-47 0 -80 4 -80 10
0 16 149 13 166 -4z m-1609 -18 c-3 -8 -6 -5 -6 6 -1 11 2 17 5 13 3 -3 4 -12
1 -19z m58 2 c-3 -5 -11 -10 -16 -10 -6 0 -7 5 -4 10 3 6 11 10 16 10 6 0 7
-4 4 -10z m102 -76 c-3 -3 -12 -4 -19 -1 -8 3 -5 6 6 6 11 1 17 -2 13 -5z
m-112 -65 c11 -17 -1 -21 -15 -4 -8 9 -8 15 -2 15 6 0 14 -5 17 -11z m1715 1
c0 -5 -18 -10 -40 -10 -22 0 -40 5 -40 10 0 6 18 10 40 10 22 0 40 -4 40 -10z
m-1440 -20 c0 -5 -4 -10 -9 -10 -6 0 -13 5 -16 10 -3 6 1 10 9 10 9 0 16 -4
16 -10z m0 -40 c0 -5 -5 -10 -11 -10 -5 0 -7 5 -4 10 3 6 8 10 11 10 2 0 4 -4
4 -10z m-245 -10 c4 -6 -5 -10 -19 -10 -14 0 -26 5 -26 10 0 6 9 10 19 10 11
0 23 -4 26 -10z m35 0 c0 -5 -4 -10 -10 -10 -5 0 -10 5 -10 10 0 6 5 10 10 10
6 0 10 -4 10 -10z m-86 -16 c3 -9 4 -20 0 -25 -8 -14 -24 -11 -24 6 0 11 -11
15 -40 15 -22 0 -40 5 -40 10 0 6 22 10 49 10 35 0 51 -4 55 -16z m456 -19 c0
-41 -11 -44 -38 -10 -20 26 -42 33 -42 14 0 -5 -4 -7 -10 -4 -19 12 15 34 53
35 36 0 37 -1 37 -35z m500 25 c0 -5 -4 -10 -10 -10 -5 0 -10 5 -10 10 0 6 5
10 10 10 6 0 10 -4 10 -10z m-850 -40 c0 -5 -11 -10 -25 -10 -14 0 -25 5 -25
10 0 6 11 10 25 10 14 0 25 -4 25 -10z m-50 -29 c0 -5 12 -12 28 -14 19 -3 14
-4 -15 -6 -40 -1 -52 6 -36 22 9 10 23 8 23 -2z m560 -31 c0 -5 -18 -10 -40
-10 -22 0 -40 5 -40 10 0 6 18 10 40 10 22 0 40 -4 40 -10z m-80 -30 c0 -5
-18 -10 -40 -10 -22 0 -40 5 -40 10 0 6 18 10 40 10 22 0 40 -4 40 -10z m-280
-10 c0 -5 15 -16 33 -24 l32 -15 -32 6 c-33 5 -33 5 -33 -36 0 -22 -4 -41 -10
-41 -15 0 -12 77 3 84 10 5 10 7 0 12 -15 7 -17 24 -3 24 6 0 10 -4 10 -10z
m360 -25 c0 -11 -11 -15 -40 -15 -29 0 -40 4 -40 15 0 11 11 15 40 15 29 0 40
-4 40 -15z m-100 -35 c0 -5 -2 -10 -4 -10 -3 0 -8 5 -11 10 -3 6 -1 10 4 10 6
0 11 -4 11 -10z m-175 -30 c-3 -5 -10 -10 -16 -10 -5 0 -9 5 -9 10 0 6 7 10
16 10 8 0 12 -4 9 -10z m49 -15 c3 -8 1 -15 -4 -15 -6 0 -10 7 -10 15 0 8 2
15 4 15 2 0 6 -7 10 -15z m241 -5 c20 -8 20 -8 1 -16 -13 -5 -21 -3 -24 4 -7
22 -20 12 -14 -10 5 -23 5 -23 -16 -4 -12 10 -28 16 -36 13 -10 -4 -13 -1 -9
9 6 15 64 18 98 4z m-983 -22 c-12 -12 -35 -1 -27 12 3 5 13 6 21 3 10 -4 12
-9 6 -15z m58 8 c0 -7 7 -19 15 -26 20 -16 19 -36 -1 -44 -21 -8 -20 -9 -29
42 -4 28 -3 42 4 42 6 0 11 -6 11 -14z m178 7 c-3 -5 -10 -23 -17 -40 -7 -18
-20 -33 -28 -33 -8 0 -13 3 -11 8 3 4 10 22 17 40 7 17 20 32 28 32 8 0 13 -3
11 -7z m27 -151 c-13 -14 -16 13 -8 85 l8 78 3 -79 c2 -43 0 -81 -3 -84z m146
98 c46 0 79 -4 79 -10 0 -6 -35 -10 -85 -10 l-85 0 2 43 c1 36 2 38 5 10 l4
-33 80 0z m1519 20 c0 -22 -4 -40 -10 -40 -5 0 -10 18 -10 40 0 22 5 40 10 40
6 0 10 -18 10 -40z m-1252 -8 c2 -7 -3 -12 -12 -12 -9 0 -16 7 -16 16 0 17 22
14 28 -4z m1432 -22 c0 -5 -4 -10 -10 -10 -5 0 -10 5 -10 10 0 6 5 10 10 10 6
0 10 -4 10 -10z m-1460 -50 l0 -40 -40 0 -40 0 0 40 0 40 40 0 40 0 0 -40z
m215 10 c3 -5 2 -10 -4 -10 -5 0 -13 5 -16 10 -3 6 -2 10 4 10 5 0 13 -4 16
-10z m-115 -41 c0 -5 -4 -9 -10 -9 -5 0 -10 7 -10 16 0 8 5 12 10 9 6 -3 10
-10 10 -16z m-515 1 c3 -5 -1 -10 -9 -10 -9 0 -16 5 -16 10 0 6 4 10 9 10 6 0
13 -4 16 -10z m1135 0 c0 -5 -18 -10 -40 -10 -22 0 -40 5 -40 10 0 6 18 10 40
10 22 0 40 -4 40 -10z m800 0 c0 -5 -18 -10 -40 -10 -22 0 -40 5 -40 10 0 6
18 10 40 10 22 0 40 -4 40 -10z m-980 -50 c0 -22 -4 -40 -10 -40 -5 0 -10 18
-10 40 0 22 5 40 10 40 6 0 10 -18 10 -40z m-1100 14 c0 -8 -5 -12 -10 -9 -6
4 -8 11 -5 16 9 14 15 11 15 -7z m148 -16 c18 -18 15 -48 -5 -48 -30 0 -41 13
-32 38 9 25 19 28 37 10z m62 -48 c0 -5 7 -10 15 -10 8 0 15 -9 15 -20 0 -11
-7 -20 -16 -20 -8 0 -12 -4 -9 -10 3 -5 0 -10 -7 -10 -9 0 -13 13 -13 40 0 22
3 40 7 40 5 0 8 -4 8 -10z m1570 -30 c0 -22 -4 -40 -10 -40 -5 0 -10 18 -10
40 0 22 5 40 10 40 6 0 10 -18 10 -40z m240 -40 c0 -47 -4 -80 -10 -80 -6 0
-10 33 -10 80 0 47 4 80 10 80 6 0 10 -33 10 -80z m-635 10 c6 -9 -20 -12
-151 -15 -30 -1 -40 3 -37 12 6 16 178 19 188 3z m-1232 -7 c-7 -2 -19 -2 -25
0 -7 3 -2 5 12 5 14 0 19 -2 13 -5z m404 -9 c-3 -3 -12 -4 -19 -1 -8 3 -5 6 6
6 11 1 17 -2 13 -5z m1658 -78 c-8 -80 -25 -105 -25 -36 0 22 5 40 10 40 6 0
10 19 10 42 0 23 3 39 6 35 3 -3 3 -40 -1 -81z m-1988 68 c-3 -3 -12 -4 -19
-1 -8 3 -5 6 6 6 11 1 17 -2 13 -5z m1053 -35 c0 -11 -4 -18 -10 -14 -5 3 -7
12 -3 20 7 21 13 19 13 -6z m-781 -20 c36 -13 37 -16 14 -41 -22 -25 -33 -23
-33 7 0 25 -1 25 -80 25 -47 0 -80 4 -80 10 0 14 139 13 179 -1z m401 1 c0 -5
-4 -10 -10 -10 -5 0 -10 5 -10 10 0 6 5 10 10 10 6 0 10 -4 10 -10z m1200 0
c0 -5 -4 -10 -10 -10 -5 0 -10 5 -10 10 0 6 5 10 10 10 6 0 10 -4 10 -10z
m-740 -20 c0 -5 -2 -10 -4 -10 -3 0 -8 5 -11 10 -3 6 -1 10 4 10 6 0 11 -4 11
-10z m807 -52 c-2 -13 -4 -3 -4 22 0 25 2 35 4 23 2 -13 2 -33 0 -45z m91 -5
c15 -11 15 -12 -5 -13 -21 0 -23 5 -22 43 2 33 3 36 6 12 3 -16 12 -35 21 -42z
m-1960 28 c3 -8 -1 -12 -9 -9 -7 2 -15 10 -17 17 -3 8 1 12 9 9 7 -2 15 -10
17 -17z m662 -31 c0 -5 -18 -10 -40 -10 -22 0 -40 5 -40 10 0 6 18 10 40 10
22 0 40 -4 40 -10z m560 -101 c0 -57 -4 -88 -10 -84 -5 3 -10 44 -10 91 0 49
4 84 10 84 6 0 10 -37 10 -91z m-365 71 c3 -5 -1 -10 -9 -10 -9 0 -16 5 -16
10 0 6 4 10 9 10 6 0 13 -4 16 -10z m-52 -37 c-13 -2 -33 -2 -45 0 -13 2 -3 4
22 4 25 0 35 -2 23 -4z m42 -3 c3 -5 1 -10 -4 -10 -6 0 -11 5 -11 10 0 6 2 10
4 10 3 0 8 -4 11 -10z m-665 -30 c0 -5 -18 -10 -40 -10 -22 0 -40 5 -40 10 0
6 18 10 40 10 22 0 40 -4 40 -10z m1440 -30 l0 -40 -40 0 -40 0 0 40 0 40 40
0 40 0 0 -40z m-670 -2 c0 -6 -6 -5 -15 2 -8 7 -15 14 -15 16 0 2 7 1 15 -2 8
-4 15 -11 15 -16z m-604 -33 c17 -17 11 -21 -36 -27 -19 -2 -26 -10 -28 -30
-4 -31 -22 -39 -22 -10 0 9 -9 23 -20 30 -28 17 -25 35 4 30 17 -4 23 -1 19 9
-7 19 64 17 83 -2z m134 -15 c-20 -13 -60 -13 -60 0 0 6 17 10 38 10 27 0 33
-3 22 -10z m100 -11 c0 -24 -23 -21 -28 4 -2 10 3 17 12 17 10 0 16 -9 16 -21z
m1170 14 c0 -10 -32 -43 -42 -43 -4 0 -8 11 -8 25 0 20 5 25 25 25 14 0 25 -3
25 -7z m-740 -33 c0 -5 -2 -10 -4 -10 -3 0 -8 5 -11 10 -3 6 -1 10 4 10 6 0
11 -4 11 -10z m-460 -23 c0 -16 -58 -39 -66 -26 -3 5 4 9 14 9 11 0 22 7 26
15 7 18 26 20 26 2z m365 -7 c3 -5 1 -10 -4 -10 -6 0 -11 5 -11 10 0 6 2 10 4
10 3 0 8 -4 11 -10z m385 0 c0 -5 -4 -10 -10 -10 -5 0 -10 5 -10 10 0 6 5 10
10 10 6 0 10 -4 10 -10z m655 0 c3 -5 1 -10 -4 -10 -6 0 -11 5 -11 10 0 6 2
10 4 10 3 0 8 -4 11 -10z m-1634 -20 c10 -6 19 -18 19 -26 0 -23 -31 -13 -41
14 -9 25 -6 27 22 12z m1059 -6 c0 -17 -22 -14 -28 4 -2 7 3 12 12 12 9 0 16
-7 16 -16z m340 -24 c0 -22 -4 -40 -10 -40 -5 0 -10 5 -10 10 0 6 -18 10 -40
10 -33 0 -40 3 -40 20 0 17 7 20 40 20 22 0 40 5 40 10 0 6 5 10 10 10 6 0 10
-18 10 -40z m270 30 c0 -5 -4 -10 -10 -10 -5 0 -10 5 -10 10 0 6 5 10 10 10 6
0 10 -4 10 -10z m-1520 -30 c0 -5 -5 -10 -11 -10 -5 0 -7 5 -4 10 3 6 8 10 11
10 2 0 4 -4 4 -10z m-35 -30 c3 -6 -4 -10 -17 -10 -18 0 -20 2 -8 10 19 12 18
12 25 0z m848 -10 c-14 -6 -32 -6 -45 0 -19 7 -15 9 22 9 37 0 41 -2 23 -9z
m-363 -40 c0 -22 -4 -40 -10 -40 -5 0 -10 18 -10 40 0 22 5 40 10 40 6 0 10
-18 10 -40z m540 0 l0 -40 50 0 50 0 0 -40 0 -40 -50 0 -50 0 0 40 c0 22 -4
40 -10 40 -5 0 -10 18 -10 40 0 22 5 40 10 40 6 0 10 -18 10 -40z m200 30
c-20 -13 -40 -13 -40 0 0 6 12 10 28 10 21 0 24 -2 12 -10z m287 -62 c-3 -8
-6 -5 -6 6 -1 11 2 17 5 13 3 -3 4 -12 1 -19z m70 0 c-3 -8 -6 -5 -6 6 -1 11
2 17 5 13 3 -3 4 -12 1 -19z m-1547 2 c0 -5 -4 -10 -10 -10 -5 0 -10 5 -10 10
0 6 5 10 10 10 6 0 10 -4 10 -10z m1536 -88 c-13 -12 -17 8 -10 40 l9 33 3
-33 c2 -19 1 -36 -2 -40z m-1456 43 c0 -8 -4 -15 -10 -15 -5 0 -10 7 -10 15 0
8 5 15 10 15 6 0 10 -7 10 -15z m820 -31 c0 -8 -7 -14 -15 -14 -15 0 -21 21
-9 33 10 9 24 -2 24 -19z m-550 -24 c0 -5 -18 -10 -40 -10 -22 0 -40 5 -40 10
0 6 18 10 40 10 22 0 40 -4 40 -10z m260 -30 c0 -22 -4 -40 -10 -40 -5 0 -10
18 -10 40 0 22 5 40 10 40 6 0 10 -18 10 -40z m-340 -10 c0 -5 -4 -10 -10 -10
-5 0 -10 5 -10 10 0 6 5 10 10 10 6 0 10 -4 10 -10z m800 -40 c0 -5 -2 -10 -4
-10 -3 0 -8 5 -11 10 -3 6 -1 10 4 10 6 0 11 -4 11 -10z m-320 -240 c0 -5 -18
-10 -40 -10 -22 0 -40 5 -40 10 0 6 18 10 40 10 22 0 40 -4 40 -10z m53 3 c-7
-2 -19 -2 -25 0 -7 3 -2 5 12 5 14 0 19 -2 13 -5z m-243 -33 c0 -5 -4 -10 -10
-10 -5 0 -10 5 -10 10 0 6 5 10 10 10 6 0 10 -4 10 -10z m400 -85 c0 -8 -4
-15 -10 -15 -5 0 -10 7 -10 15 0 8 5 15 10 15 6 0 10 -7 10 -15z m13 -64 c-21
-25 -33 -27 -33 -6 0 8 6 15 14 15 8 0 17 8 21 18 5 10 9 12 12 5 2 -6 -4 -21
-14 -32z m-93 -21 c0 -5 -4 -10 -10 -10 -5 0 -10 5 -10 10 0 6 5 10 10 10 6 0
10 -4 10 -10z m314 -89 c3 -5 -5 -11 -19 -13 -17 -4 -25 -1 -25 8 0 15 36 19
44 5z m-1894 -71 c74 -1 130 -4 124 -6 -13 -6 -6 -45 10 -56 6 -4 11 -17 12
-30 1 -13 7 -36 14 -53 7 -16 17 -97 21 -180 5 -82 13 -160 19 -172 13 -31 38
-29 46 4 4 15 11 32 16 38 5 5 26 34 46 64 70 103 74 86 37 -154 -24 -156 -51
-268 -81 -332 -8 -17 -14 -38 -14 -47 0 -28 -77 -232 -104 -274 -14 -23 -26
-46 -26 -52 0 -6 -16 -41 -35 -77 -19 -36 -35 -76 -35 -87 0 -12 -16 -45 -35
-75 -47 -71 -47 -86 0 -55 22 14 97 106 106 130 7 18 103 124 112 124 5 0 7
-17 5 -37 -3 -36 -2 -38 26 -36 35 3 87 58 119 126 12 26 26 47 30 47 5 0 5 5
2 10 -3 6 -2 10 3 10 15 0 133 159 155 209 11 25 32 64 46 86 34 54 46 74 66
113 10 17 22 32 27 32 16 0 3 -431 -15 -505 -26 -110 -59 -219 -83 -275 -12
-30 -28 -73 -35 -95 -17 -57 -140 -308 -160 -325 -3 -3 -18 -30 -32 -60 -40
-82 -73 -137 -115 -194 -21 -28 -45 -64 -53 -81 -16 -35 -10 -26 -97 -135 -73
-91 -103 -144 -59 -102 13 12 28 22 34 22 6 0 13 7 16 15 6 15 78 55 100 55 7
0 23 11 35 25 12 14 28 25 34 25 7 0 32 10 55 22 55 29 66 16 20 -23 -21 -17
-37 -40 -37 -49 0 -10 -6 -20 -12 -23 -8 -2 -9 -8 -4 -13 5 -5 11 -4 13 4 3 6
9 12 14 12 6 0 7 -4 4 -10 -10 -16 12 -12 30 6 8 9 13 24 10 33 -4 15 0 17 24
13 21 -3 32 2 43 16 8 11 26 24 42 28 15 3 30 13 33 20 3 8 11 14 19 14 7 0
21 14 31 30 9 17 24 30 33 30 8 0 28 11 44 25 16 14 32 25 36 25 11 0 50 36
50 46 0 5 10 14 22 19 12 6 26 19 32 30 15 26 39 51 44 45 6 -7 45 26 243 210
144 134 210 201 247 250 14 19 34 43 44 53 32 31 33 -6 3 -80 -15 -38 -32 -81
-38 -98 -10 -30 -69 -159 -111 -244 -11 -23 -38 -60 -58 -81 -21 -21 -38 -42
-38 -48 0 -6 22 -1 49 10 47 20 81 20 81 -1 0 -5 -11 -22 -24 -38 -13 -15 -25
-37 -27 -48 -2 -11 -14 -24 -26 -30 -12 -5 -31 -26 -43 -47 -12 -21 -25 -38
-28 -38 -4 0 -15 -13 -25 -29 -9 -16 -39 -53 -67 -83 -75 -81 -80 -87 -92
-113 -6 -14 -17 -25 -23 -25 -18 0 -50 -50 -33 -50 7 0 -2 -8 -19 -16 -18 -9
-33 -21 -33 -26 0 -5 -30 -41 -67 -79 -38 -39 -67 -77 -65 -85 2 -8 -4 -14
-12 -14 -8 0 -34 -18 -58 -40 -23 -22 -50 -42 -59 -45 -9 -3 -19 -14 -22 -25
-3 -10 -19 -28 -37 -38 -17 -11 -38 -29 -46 -41 -8 -11 -21 -21 -29 -21 -7 0
-24 -12 -37 -27 -13 -16 -39 -39 -58 -53 -40 -28 -49 -35 -90 -72 -16 -15 -45
-34 -64 -42 -20 -8 -41 -19 -48 -25 -7 -6 -29 -24 -49 -41 -20 -16 -40 -30
-45 -30 -4 0 -15 -7 -25 -16 -37 -33 -351 -84 -519 -84 -79 0 -86 2 -100 24
-8 13 -27 41 -41 62 -14 22 -30 53 -36 69 -14 43 -38 44 -39 3 0 -18 -7 -60
-14 -93 -9 -40 -13 -135 -13 -285 l0 -225 30 -81 c17 -44 44 -139 58 -210 23
-110 27 -144 22 -229 -6 -103 -11 -123 -71 -268 -31 -74 -36 -97 -36 -165 0
-88 10 -123 53 -197 31 -52 87 -182 87 -201 0 -7 -12 -19 -26 -29 -23 -15 -32
-15 -70 -5 -24 7 -44 18 -44 24 0 7 -13 25 -30 41 -16 15 -32 41 -35 56 -10
43 -25 45 -25 3 0 -37 11 -81 56 -223 29 -90 33 -205 7 -233 -21 -23 -32 -23
-59 3 -29 27 -41 19 -46 -29 l-3 -39 153 -17 c84 -10 166 -22 183 -26 17 -5
64 -14 105 -19 80 -12 154 -32 154 -43 0 -3 -26 -12 -57 -18 -32 -7 -80 -19
-108 -27 -72 -23 -121 -33 -195 -43 -36 -4 -121 -16 -190 -26 -113 -17 -195
-19 -845 -18 -625 0 -739 2 -865 18 -80 10 -192 22 -250 26 -146 13 -202 20
-225 30 -24 9 -177 30 -224 30 -21 0 -31 4 -29 12 6 16 32 22 188 42 74 9 209
28 300 43 257 40 264 41 455 52 348 22 962 18 1300 -7 124 -10 146 -7 115 15
-11 8 -20 21 -20 29 0 8 -11 19 -24 25 -13 6 -27 19 -30 28 -6 17 -57 109 -83
149 -11 19 -17 21 -29 11 -8 -6 -14 -20 -14 -30 0 -10 -4 -21 -10 -24 -5 -3
-10 -20 -10 -36 0 -33 -17 -44 -55 -35 -18 5 -25 13 -25 32 0 14 -5 34 -10 44
-14 25 9 116 49 200 38 79 42 159 12 218 -19 38 -130 155 -164 174 -18 9 -19
6 -13 -49 3 -32 7 -76 9 -98 11 -115 -23 -252 -88 -355 -22 -35 -30 -40 -64
-40 -49 0 -65 17 -46 50 27 47 63 125 80 173 15 40 17 71 13 205 -4 106 -11
171 -22 202 -9 25 -16 66 -16 91 0 25 -7 68 -15 95 -18 58 -19 168 -4 267 13
85 77 226 118 263 19 16 31 39 35 65 3 21 20 61 36 88 41 65 40 119 -2 234
l-33 89 -60 -4 c-48 -3 -84 -15 -175 -60 -63 -30 -131 -59 -150 -63 -19 -4
-39 -11 -45 -15 -5 -4 -21 -10 -35 -13 -53 -12 -197 -66 -244 -91 -27 -14 -57
-26 -68 -26 -10 0 -39 -10 -66 -23 -26 -12 -74 -29 -107 -36 -33 -7 -82 -23
-110 -36 -27 -12 -68 -28 -90 -35 -22 -7 -53 -18 -70 -25 -79 -33 -113 -44
-149 -50 -21 -4 -63 -17 -94 -31 -30 -13 -61 -24 -68 -24 -7 0 -46 -16 -87
-35 -41 -19 -83 -35 -94 -35 -11 0 -40 -11 -64 -24 -24 -13 -64 -27 -89 -31
-25 -4 -63 -15 -85 -25 -107 -47 -196 -71 -219 -58 -9 5 -54 12 -99 16 -72 6
-82 9 -82 26 0 16 13 23 65 36 36 9 87 26 114 38 27 12 54 22 61 22 6 0 26 7
43 15 33 17 214 84 247 91 66 16 109 30 180 59 149 62 220 87 290 105 39 10
92 27 118 39 27 12 57 21 66 21 10 0 50 16 90 35 39 19 80 35 91 35 10 0 34 9
52 19 18 11 65 27 103 36 39 9 80 20 93 26 12 5 32 13 45 18 97 41 251 96 310
111 40 9 87 24 104 33 17 9 51 21 75 26 50 12 158 59 158 70 0 4 -6 15 -13 25
-12 17 -18 17 -73 5 -32 -7 -64 -16 -69 -20 -6 -4 -35 -11 -65 -14 -56 -7
-109 -20 -145 -35 -11 -5 -31 -11 -45 -13 -27 -6 -165 -38 -240 -56 -25 -6
-88 -20 -140 -30 -108 -21 -385 -89 -415 -102 -30 -12 -93 -26 -150 -33 -27
-3 -97 -18 -155 -32 -58 -14 -118 -28 -135 -30 -41 -6 -106 -24 -128 -36 -11
-5 -74 -21 -140 -34 -67 -14 -142 -31 -167 -39 -25 -7 -96 -23 -158 -34 -63
-12 -141 -30 -175 -40 -67 -20 -216 -56 -232 -56 -5 0 -10 15 -10 32 0 18 -6
38 -13 45 -18 18 -14 36 10 44 51 16 175 44 196 44 12 0 55 9 95 21 39 11 88
25 107 31 19 5 60 14 91 18 31 5 76 16 100 24 24 8 71 19 104 25 106 18 169
30 205 40 19 6 64 17 100 26 36 9 110 28 165 42 55 14 120 29 145 34 318 61
474 96 755 169 61 16 137 32 170 35 33 4 80 13 105 20 105 32 197 55 220 55
39 1 71 22 60 40 -14 21 -11 255 4 380 9 80 20 121 44 173 18 37 32 75 32 85
0 10 -13 31 -28 48 -16 16 -31 39 -35 52 -7 29 9 77 38 117 12 17 25 40 29 53
4 12 19 35 33 50 13 15 31 40 38 57 7 16 31 49 54 72 22 23 41 46 41 50 0 10
-62 76 -121 130 -77 68 -99 104 -99 156 0 96 -21 198 -48 240 -15 22 -47 77
-72 122 -25 45 -51 89 -58 98 -7 8 -23 42 -36 76 -14 33 -33 73 -44 88 -11 16
-27 54 -36 85 -15 54 -15 60 0 83 9 14 20 25 25 25 4 0 28 28 53 63 25 34 64
80 89 103 24 22 65 68 91 102 26 34 56 67 67 72 10 6 19 18 19 27 0 16 24 48
115 151 85 95 145 170 145 178 0 10 88 94 99 94 4 0 21 -39 36 -87 44 -139
135 -377 168 -438 6 -11 10 -25 9 -32 -1 -6 3 -15 9 -19 9 -5 11 10 6 64 -7
73 -1 87 25 57 7 -9 28 -32 47 -53 33 -36 34 -36 27 -9 -3 15 -2 27 3 27 15 0
22 30 11 50 -10 19 -27 92 -37 160 -2 19 -9 53 -15 75 -17 67 -36 195 -43 290
-7 90 -7 90 18 104 35 19 62 8 47 -19 -13 -24 3 -26 63 -9 52 14 62 4 37 -37
-11 -20 -20 -37 -20 -40 0 -14 36 1 86 36 86 60 86 60 84 -77 -3 -184 -1 -225
10 -218 6 4 10 16 8 28 -2 14 5 25 18 32 37 19 51 34 57 64 7 34 44 49 62 24
10 -14 13 -10 19 23 4 21 9 46 12 55 3 12 -5 20 -25 27 -23 8 -31 18 -36 45
-12 61 -2 72 68 83 34 6 73 9 87 8 14 -1 86 -3 160 -4z m-2260 -3411 c-25 -4
-49 -2 -55 3 -6 6 -4 7 8 3 9 -4 17 -3 17 2 0 5 17 7 38 4 l37 -5 -45 -7z
m-2741 -267 c19 -9 34 -21 34 -27 0 -5 -26 -23 -57 -40 -30 -16 -83 -49 -117
-73 -33 -24 -74 -45 -90 -49 l-29 -5 0 53 c1 67 26 116 71 139 46 24 144 25
188 2z m-829 -593 c0 -32 -127 -166 -166 -175 -16 -3 -51 -13 -77 -22 -27 -8
-65 -15 -84 -16 -35 -1 -36 0 -49 53 -13 48 -13 57 0 69 13 14 319 100 359
101 9 1 17 -4 17 -10z m430 -183 c0 -3 -4 -8 -10 -11 -5 -3 -10 -1 -10 4 0 6
5 11 10 11 6 0 10 -2 10 -4z m1040 -24 c0 -11 -33 -41 -97 -89 -28 -21 -61
-51 -73 -66 -23 -29 -115 -87 -138 -87 -8 0 -28 -6 -45 -14 -43 -19 -127 -44
-127 -39 0 3 11 19 25 37 14 17 29 36 33 41 88 121 92 124 144 140 28 8 57 15
64 15 6 0 33 10 59 21 40 18 117 43 148 48 4 0 7 -3 7 -7z m-1300 -473 c7 -11
14 -33 16 -47 3 -15 10 -32 16 -39 8 -10 6 -13 -6 -13 -9 0 -16 -4 -16 -9 0
-11 -54 -31 -83 -31 -11 0 -44 -11 -73 -25 -30 -14 -67 -28 -83 -31 -26 -5
-30 -3 -36 24 -3 17 -13 33 -21 36 -20 8 -18 40 4 59 10 10 41 25 67 34 27 9
60 22 74 30 15 7 34 13 43 13 9 0 20 5 23 10 12 19 64 11 75 -11z m3680 -589
c0 -15 -6 -20 -27 -19 -24 2 -25 2 -5 6 12 2 22 11 22 19 0 8 2 14 5 14 3 0 5
-9 5 -20z"/>
<path d="M5833 5986 c-28 -13 -29 -32 -5 -45 33 -18 188 -25 239 -11 55 15 78
30 46 30 -12 0 -25 -4 -28 -10 -4 -6 -53 -10 -116 -10 -88 0 -109 3 -109 14 0
8 5 18 10 21 14 9 12 25 -2 24 -7 -1 -23 -6 -35 -13z"/>
<path d="M5570 5735 c0 -8 2 -15 4 -15 2 0 6 7 10 15 3 8 1 15 -4 15 -6 0 -10
-7 -10 -15z"/>
<path d="M5465 5645 c6 -30 21 -52 29 -44 2 2 -5 20 -15 39 l-20 35 6 -30z"/>
<path d="M5382 3472 c-23 -83 -35 -195 -27 -247 l8 -50 13 50 c8 28 21 94 29
148 12 80 13 102 2 122 -12 24 -13 24 -25 -23z"/>
<path d="M5357 3154 c-4 -4 -7 -14 -7 -23 0 -11 3 -12 11 -4 6 6 10 16 7 23
-2 6 -7 8 -11 4z"/>
<path d="M1390 2570 c0 -5 -16 -28 -36 -50 -20 -22 -32 -40 -27 -40 5 0 18 10
29 23 32 35 55 77 44 77 -5 0 -10 -4 -10 -10z"/>
<path d="M2856 541 c9 -9 144 -41 172 -41 35 0 -7 18 -77 34 -83 18 -110 20
-95 7z"/>
<path d="M2756 481 c14 -14 22 -16 32 -8 11 9 11 12 -5 18 -36 15 -48 10 -27
-10z"/>
<path d="M2813 474 c9 -9 119 -34 126 -29 3 4 -38 16 -104 31 -17 4 -26 3 -22
-2z"/>
<path d="M5840 471 c0 -10 -36 -14 -285 -30 -93 -6 -219 -16 -280 -22 -119
-11 -530 -13 -825 -3 -102 4 -183 4 -180 1 10 -11 483 -36 715 -38 231 -2 377
3 535 21 47 5 146 15 220 20 176 14 215 22 215 40 0 11 -15 16 -57 18 -33 2
-58 -1 -58 -7z"/>
<path d="M2968 433 c12 -2 32 -2 45 0 12 2 2 4 -23 4 -25 0 -35 -2 -22 -4z"/>
<path d="M2834 158 c6 -50 -6 -55 -44 -18 -17 16 -41 30 -53 30 -20 0 -19 -2
8 -19 44 -27 122 -105 130 -130 7 -22 25 -29 25 -11 0 6 -8 29 -19 50 -21 44
-19 50 18 50 24 1 23 2 -12 21 -21 11 -42 30 -48 42 -8 18 -9 15 -5 -15z"/>
<path d="M2600 160 c0 -5 6 -10 14 -10 8 0 18 5 21 10 3 6 -3 10 -14 10 -12 0
-21 -4 -21 -10z"/>
<path d="M2970 92 c15 -9 126 -46 229 -76 29 -9 67 -16 85 -15 28 0 27 1 -14
13 -25 8 -71 19 -102 26 -32 7 -58 16 -58 20 0 4 -24 12 -52 18 -29 6 -64 14
-78 17 -18 5 -21 4 -10 -3z"/>
</g>
</svg>
